<svg width="21" height="24" viewBox="0 0 21 24" fill="none" xmlns="http://www.w3.org/2000/svg">
<path d="M15.1011 0C15.1566 0 15.2122 0 15.2709 0C15.4072 1.68383 14.7645 2.94199 13.9834 3.8531C13.217 4.75793 12.1675 5.63549 10.47 5.50234C10.3568 3.84262 11.0005 2.67778 11.7806 1.76876C12.504 0.921599 13.8303 0.167754 15.1011 0Z" fill="#4F4F4F"/>
<path d="M20.2353 17.5263C20.2353 17.5431 20.2353 17.5577 20.2353 17.5735C19.7583 19.0183 19.0778 20.2565 18.2474 21.4056C17.4894 22.4488 16.5604 23.8527 14.9018 23.8527C13.4685 23.8527 12.5165 22.9311 11.0476 22.906C9.4938 22.8808 8.6393 23.6766 7.21863 23.8768C7.05612 23.8768 6.89361 23.8768 6.73424 23.8768C5.69102 23.7259 4.8491 22.8997 4.23575 22.1553C2.42715 19.9556 1.02955 17.1142 0.769531 13.4782C0.769531 13.1217 0.769531 12.7663 0.769531 12.4098C0.87962 9.80751 2.14407 7.69171 3.82475 6.66631C4.71175 6.12111 5.93112 5.65664 7.28888 5.86423C7.87077 5.9544 8.46525 6.15361 8.98634 6.35072C9.48017 6.54049 10.0977 6.87705 10.6828 6.85923C11.0791 6.84769 11.4733 6.64115 11.8728 6.49541C13.0428 6.07288 14.1899 5.58849 15.7017 5.816C17.5187 6.0907 18.8083 6.89802 19.6052 8.14359C18.0681 9.12181 16.853 10.5959 17.0606 13.1133C17.2451 15.4 18.5745 16.7378 20.2353 17.5263Z" fill="#4F4F4F"/>
</svg>
