<svg width="21" height="21" viewBox="0 0 21 21" fill="none" xmlns="http://www.w3.org/2000/svg">
<path d="M0.47553 0.992188C0.422777 1.16835 0.386719 1.35836 0.386719 1.57539V19.4278C0.386719 19.6415 0.422777 19.8295 0.473472 20.0037L11.014 10.5112C11.014 10.5111 0.47553 0.992188 0.47553 0.992188Z" fill="white"/>
<path d="M15.1299 6.80605L2.82313 0.298619C2.33249 0.0149882 1.84948 -0.0568979 1.44141 0.0420179L12.0263 9.6025L15.1299 6.80605Z" fill="white"/>
<path d="M19.6688 9.20575L16.3841 7.46875L13.0195 10.4981L16.4465 13.5948L19.6424 11.9264C21.2025 11.0813 20.6334 9.72099 19.6688 9.20575Z" fill="white"/>
<path d="M1.41016 20.9477C1.82448 21.0578 2.31931 20.9919 2.82245 20.7009L15.1667 14.2582L12.0069 11.4043C12.0069 11.4044 1.41016 20.9477 1.41016 20.9477Z" fill="white"/>
</svg>
