<svg width="102" height="102" viewBox="0 0 102 102" fill="none" xmlns="http://www.w3.org/2000/svg">
<g filter="url(#filter0_d_88_6284)">
<circle cx="51" cy="47" r="25" fill="white"/>
</g>
<path d="M49.6008 35.1406L58.516 38.0007C58.7646 38.0804 58.9819 38.2396 59.1362 38.4551C59.2905 38.6706 59.3736 38.9312 59.3735 39.1986V41.4127H61.8167C62.1407 41.4127 62.4514 41.5448 62.6805 41.7801C62.9096 42.0153 63.0383 42.3344 63.0383 42.6671V52.7023C63.0383 53.035 62.9096 53.3541 62.6805 53.5893C62.4514 53.8246 62.1407 53.9567 61.8167 53.9567L57.8832 53.958C57.4104 54.5978 56.8363 55.1622 56.173 55.6264L49.6008 60.2288L43.0287 55.6276C42.0423 54.937 41.2351 54.0094 40.6773 52.9255C40.1195 51.8416 39.828 50.6342 39.8281 49.4083V39.1986C39.8283 38.9314 39.9115 38.6711 40.0658 38.4559C40.2201 38.2406 40.4372 38.0816 40.6857 38.0019L49.6008 35.1406ZM49.6008 37.7674L42.2713 40.1206V49.4083C42.2711 50.1762 42.4426 50.934 42.7726 51.6232C43.1026 52.3124 43.5822 52.9146 44.1745 53.3835L44.4054 53.5541L49.6008 57.1931L54.2209 53.9567H48.3792C48.0553 53.9567 47.7445 53.8246 47.5154 53.5893C47.2864 53.3541 47.1577 53.035 47.1577 52.7023V42.6671C47.1577 42.3344 47.2864 42.0153 47.5154 41.7801C47.7445 41.5448 48.0553 41.4127 48.3792 41.4127H56.9304V40.1206L49.6008 37.7674ZM49.6008 47.6847V51.4479H60.5951V47.6847H49.6008ZM49.6008 45.1759H60.5951V43.9215H49.6008V45.1759Z" fill="#7D0003"/>
<defs>
<filter id="filter0_d_88_6284" x="0" y="0" width="102" height="102" filterUnits="userSpaceOnUse" color-interpolation-filters="sRGB">
<feFlood flood-opacity="0" result="BackgroundImageFix"/>
<feColorMatrix in="SourceAlpha" type="matrix" values="0 0 0 0 0 0 0 0 0 0 0 0 0 0 0 0 0 0 127 0" result="hardAlpha"/>
<feOffset dy="4"/>
<feGaussianBlur stdDeviation="13"/>
<feColorMatrix type="matrix" values="0 0 0 0 0 0 0 0 0 0 0 0 0 0 0 0 0 0 0.06 0"/>
<feBlend mode="normal" in2="BackgroundImageFix" result="effect1_dropShadow_88_6284"/>
<feBlend mode="normal" in="SourceGraphic" in2="effect1_dropShadow_88_6284" result="shape"/>
</filter>
</defs>
</svg>
