<svg width="102" height="102" viewBox="0 0 102 102" fill="none" xmlns="http://www.w3.org/2000/svg">
<g filter="url(#filter0_d_88_6292)">
<circle cx="51" cy="47" r="25" fill="white"/>
</g>
<path fill-rule="evenodd" clip-rule="evenodd" d="M50.616 59.6929C43.3934 59.6929 37.5391 53.8385 37.5391 46.616C37.5391 39.3934 43.3934 33.5391 50.616 33.5391C57.8385 33.5391 63.6929 39.3934 63.6929 46.616C63.6929 53.8385 57.8385 59.6929 50.616 59.6929ZM50.8448 52.6028C51.685 53.1839 52.7508 53.5296 53.9048 53.5296C54.1917 53.5296 54.4753 53.5083 54.754 53.4667C54.8496 53.5059 54.942 53.5541 55.0556 53.6195C55.3008 53.7633 55.6285 53.984 56.0364 54.2815C56.3706 54.5259 56.8439 54.2897 56.8439 53.8786V52.6845C57.0155 52.5733 57.1773 52.4532 57.3302 52.3232C58.2537 51.5403 58.7891 50.4696 58.7891 49.3213C58.7891 48.5653 58.5602 47.8583 58.1581 47.2478C58.0313 47.6813 57.8596 48.1004 57.6456 48.4982C57.7306 48.7622 57.7756 49.0377 57.7756 49.3213C57.7756 50.1664 57.3768 50.9641 56.6706 51.5623C56.4884 51.7163 56.2922 51.8528 56.0846 51.9702C56.0077 52.0136 55.9436 52.0767 55.899 52.1529C55.8543 52.2291 55.8307 52.3158 55.8304 52.4042V52.9142C55.3457 52.6036 55.0131 52.4573 54.7597 52.4573C54.7312 52.4574 54.7028 52.4598 54.6747 52.4646C53.9647 52.5834 53.2367 52.5358 52.5481 52.3257C51.9904 52.4705 51.4205 52.5636 50.8456 52.6036L50.8448 52.6028ZM44.7428 50.2146C45.0123 50.4426 45.2974 50.6516 45.5961 50.8398V52.8766C45.5961 53.3915 46.1886 53.6857 46.6063 53.38C47.7587 52.5382 48.5596 52.0625 48.7599 52.0151C49.2225 52.0887 49.6949 52.1255 50.1722 52.1255C54.4222 52.1255 57.9023 49.1774 57.9023 45.4889C57.9023 41.7996 54.4214 38.8516 50.1722 38.8516C45.923 38.8516 42.4429 41.7996 42.4429 45.4881C42.4429 47.2944 43.2847 48.9788 44.7428 50.2146ZM48.7877 50.7589C48.3766 50.7589 47.7758 51.0491 46.8637 51.6612V50.4868C46.8633 50.3762 46.8336 50.2677 46.7776 50.1724C46.7216 50.077 46.6413 49.9983 46.545 49.9441C46.1986 49.7481 45.8714 49.5201 45.5675 49.2632C44.3799 48.2588 43.7097 46.9151 43.7097 45.4881C43.7097 42.5376 46.5834 40.1037 50.1722 40.1037C53.7618 40.1037 56.6346 42.5376 56.6346 45.4881C56.6346 48.4386 53.7618 50.8733 50.1722 50.8733C49.739 50.8733 49.3116 50.8374 48.8939 50.7671C48.8588 50.7614 48.8233 50.7587 48.7877 50.7589ZM46.8776 46.741C47.4375 46.741 47.8911 46.2915 47.8911 45.739C47.8911 45.1857 47.4375 44.737 46.8776 44.737C46.3178 44.737 45.8642 45.1857 45.8642 45.739C45.8642 46.2923 46.3178 46.741 46.8776 46.741ZM50.1722 46.741C50.732 46.741 51.1856 46.2915 51.1856 45.739C51.1856 45.1857 50.732 44.737 50.1722 44.737C49.6123 44.737 49.1587 45.1857 49.1587 45.739C49.1587 46.2923 49.6123 46.741 50.1722 46.741ZM53.4668 46.741C54.0266 46.741 54.4802 46.2915 54.4802 45.739C54.4802 45.1857 54.0266 44.737 53.4668 44.737C52.9069 44.737 52.4533 45.1857 52.4533 45.739C52.4533 46.2923 52.9069 46.741 53.4668 46.741Z" fill="#7D0003"/>
<defs>
<filter id="filter0_d_88_6292" x="0" y="0" width="102" height="102" filterUnits="userSpaceOnUse" color-interpolation-filters="sRGB">
<feFlood flood-opacity="0" result="BackgroundImageFix"/>
<feColorMatrix in="SourceAlpha" type="matrix" values="0 0 0 0 0 0 0 0 0 0 0 0 0 0 0 0 0 0 127 0" result="hardAlpha"/>
<feOffset dy="4"/>
<feGaussianBlur stdDeviation="13"/>
<feColorMatrix type="matrix" values="0 0 0 0 0 0 0 0 0 0 0 0 0 0 0 0 0 0 0.06 0"/>
<feBlend mode="normal" in2="BackgroundImageFix" result="effect1_dropShadow_88_6292"/>
<feBlend mode="normal" in="SourceGraphic" in2="effect1_dropShadow_88_6292" result="shape"/>
</filter>
</defs>
</svg>
